<?xml version="1.0" encoding="UTF-8"?>
<svg id="Layer_2" data-name="Layer 2" xmlns="http://www.w3.org/2000/svg" viewBox="0 0 211.88 181.59">
  <defs>
    <style>
      .cls-1 {
        font-family: Orbitron-Bold, Orbitron;
        font-size: 46px;
        font-variation-settings: 'wght' 700;
        font-weight: 700;
      }

      .cls-1, .cls-2 {
        fill: #353434;
      }

      .cls-3 {
        fill: #ed5c0c;
      }
    </style>
  </defs>
  <g id="Layer_1-2" data-name="Layer 1">
    <g>
      <text class="cls-1" transform="translate(0 168.94) scale(1 1.1)"><tspan x="0" y="0">Diorans</tspan></text>
      <g>
        <rect class="cls-2" x="63.82" y="102.34" width="83.6" height="7.35"/>
        <path class="cls-2" d="M158.14,98.74c-.05-4.49-2.9-7.19-7.6-7.18h0s0-10.95,0-10.95c.01-11.52.01-23.05-.02-34.58,0-2.28-.15-4.64-.43-6.99-1.45-12.05-8.09-23.15-18.21-30.46C121.75,1.26,109.12-1.56,97.22.84c-21.83,4.41-36.54,22.34-36.58,44.63-.02,10.76-.01,21.52-.01,32.28v13.82c-5.39.24-7.61,2.69-7.62,8.3,0,4.13-.01,8.26,0,12.39.01,2.14.16,4.37,2.01,6.2,1.49,1.48,3.63,2.16,6.19,1.96,22.06.04,42.44.06,58.21.06,17.89,0,29.85-.02,31.6-.07,2.21-.06,3.97-.75,5.22-2.04,1.23-1.26,1.87-2.95,1.9-5.02.06-4.65.06-9.42,0-14.61ZM152.14,113.27c-.01.66-.14.86-.2.92-.02.02-.22.2-1.09.22-2.84.08-37.18.11-89.76.02h-.27c-.98.1-1.46-.11-1.58-.23-.15-.15-.23-.8-.23-1.95-.01-4.12-.01-8.25,0-12.38,0-.64.03-1.1.07-1.42.05-.42.38-.74.79-.8.34-.05.84-.09,1.57-.1h5.19v-19.81c0-10.75,0-21.51.01-32.26.04-19.36,12.8-34.93,31.77-38.76,10.26-2.07,21.18.38,29.95,6.72,8.77,6.34,14.51,15.93,15.76,26.31.26,2.13.39,4.24.4,6.3.02,11.52.02,23.04.02,34.56v16.94s4.16,0,4.16,0c.72-.01,1.37-.01,2.02,0,1.41.03,1.41.24,1.42,1.25.06,5.14.06,9.87,0,14.46Z"/>
        <path class="cls-3" d="M87.42,49.05h20.46c-3.61,3.37-7.01,6.54-10.5,9.81,2.68,2.62,4.71,4.61,6.85,6.7.34-.25.75-.47,1.06-.79,5.54-5.5,11.05-11.03,16.58-16.54,1.59-1.58,2.58-3.33,1.61-5.62-.95-2.24-2.78-2.88-5.08-2.88-11.52.03-23.04,0-34.56.02-4.08.01-5.67,1.61-5.67,5.74-.02,15.24-.01,30.47-.01,45.7v3.23c3.09-.03,6.18-.05,9.26-.08v-45.29Z"/>
        <path class="cls-3" d="M113.84,74.39c2.83-2.93,6.04-6.25,9.82-10.17v30.12c3.12.02,6.23.04,9.35.06v-3.17c0-12.18-.02-24.36.02-36.55,0-2.36-.47-4.36-2.85-5.39-2.42-1.05-4.17.1-5.82,1.76-5.71,5.72-11.45,11.42-17.23,17.18,2.28,2.09,4.41,4.05,6.71,6.16Z"/>
      </g>
    </g>
  </g>
</svg>